<svg xmlns="http://www.w3.org/2000/svg" viewBox="0 0 400 400" fill="none">
  <defs>
    <linearGradient id="bg" x1="0" y1="0" x2="1" y2="1">
      <stop offset="0%" stop-color="#6366f1"/>
      <stop offset="50%" stop-color="#a855f7"/>
      <stop offset="100%" stop-color="#ec4899"/>
    </linearGradient>
    <linearGradient id="rocket" x1="0" y1="0" x2="1" y2="1">
      <stop offset="0%" stop-color="#fff"/>
      <stop offset="100%" stop-color="#e0e7ff"/>
    </linearGradient>
  </defs>
  <circle cx="200" cy="200" r="180" fill="url(#bg)" opacity="0.12"/>
  <circle cx="200" cy="200" r="140" fill="url(#bg)" opacity="0.08"/>
  <g transform="translate(200, 195)">
    <path d="M-12 50 Q0 70 12 50" fill="#f59e0b" opacity="0.8"/>
    <path d="M-8 45 Q0 60 8 45" fill="#fbbf24" opacity="0.9"/>
    <path d="M0 -80 C-30 -30 -35 30 -20 55 L20 55 C35 30 30 -30 0 -80Z" fill="url(#rocket)"/>
    <circle cx="0" cy="-10" r="14" fill="url(#bg)"/>
    <circle cx="0" cy="-10" r="8" fill="#fff" opacity="0.6"/>
    <path d="M-20 30 L-55 55 L-40 20 Z" fill="url(#bg)" opacity="0.8"/>
    <path d="M20 30 L55 55 L40 20 Z" fill="url(#bg)" opacity="0.8"/>
  </g>
  <ellipse cx="200" cy="200" rx="100" ry="30" fill="none" stroke="url(#bg)" stroke-width="2" stroke-dasharray="8 6" opacity="0.3" transform="rotate(-20 200 200)"/>
  <circle cx="320" cy="80" r="4" fill="#a855f7" opacity="0.4"/>
  <circle cx="90" cy="310" r="3" fill="#6366f1" opacity="0.3"/>
  <circle cx="340" cy="250" r="3" fill="#ec4899" opacity="0.3"/>
  <circle cx="70" cy="100" r="4" fill="#a855f7" opacity="0.35"/>
</svg>